{"accessors" : [{"bufferView" : 0, "byteOffset" : 0, "componentType" : 5123, "count" : 43029, "type" : "SCALAR", "max" : [43028], "min" : [0]}, {"bufferView" : 1, "byteOffset" : 0, "componentType" : 5126, "count" : 43029, "type" : "VEC3", "max" : [75.17963409423828, 14.471185684204102, 29.69999885559082], "min" : [-74.9084243774414, -15.83023452758789, -4.486087799072266], "name" : "POSITION"}, {"bufferView" : 1, "byteOffset" : 12, "componentType" : 5126, "count" : 43029, "type" : "VEC3", "max" : [1.0000044107437134, 1.0000044107437134, 1.0000044107437134], "min" : [-1.0000044107437134, -1.0000044107437134, -1.0000044107437134], "name" : "NORMAL"}], "asset" : {"generator" : "Aspose.3D 22.5.1", "version" : "2.0"}, "buffers" : [{"uri" : "data:application/octet-stream;base64,", "byteLength" : 1118764}], "bufferViews" : [{"buffer" : 0, "byteOffset" : 0, "byteLength" : 86060, "target" : 34963}, {"buffer" : 0, "byteOffset" : 86064, "byteLength" : 1032696, "byteStride" : 24, "target" : 34962}], "meshes" : [{"primitives" : [{"attributes" : {"POSITION" : 1, "NORMAL" : 2}, "indices" : 0, "mode" : 4}], "name" : "stlmesh"}], "nodes" : [{"mesh" : 0, "name" : "stlmesh"}], "scene" : 0, "scenes" : [{"nodes" : [0]}]}